# xmcd
#
# Track frame offsets:
#	150
#	14730
#	30165
#	46089
#	59898
#	73959
#	88012
#	103717
#	118441
#	135496
#	150359
#	165542
#
# Disc length: 2415 seconds
#
# Revision: 1
# Processed by: cddbd v1.5.2PL0 Copyright (c) Steve Scherf et al.
# Submitted via: audiograbber 1.83.01
#
DISCID=a2096d0c
DTITLE=Bessie Smith - The Bessie Smith Story Vol. 1
DYEAR=1951
DGENRE=Blues
TTITLE0=The St. Louis Blues
TTITLE1=I Ain't Goin' to Play Second Fiddle
TTITLE2=You've Been a Good Ole Wagon
TTITLE3=Sobbin' Hearted Blues
TTITLE4=Reckless Blues
TTITLE5=J.C. Holmes Blues
TTITLE6=Careless Love Blues
TTITLE7=Cold In Hand Blues
TTITLE8=Nashville Woman's Blues
TTITLE9=Jail-House Blues
TTITLE10=Ticket Agent, Ease Your Window Down
TTITLE11=Down Hearted Blues
EXTD=
EXTT0=
EXTT1=
EXTT2=
EXTT3=
EXTT4=
EXTT5=
EXTT6=
EXTT7=
EXTT8=
EXTT9=
EXTT10=
EXTT11=
PLAYORDER=
